<?xml version="1.0" standalone="no"?>
<!DOCTYPE svg PUBLIC "-//W3C//DTD SVG 20010904//EN"
 "http://www.w3.org/TR/2001/REC-SVG-20010904/DTD/svg10.dtd">
<svg version="1.0" xmlns="http://www.w3.org/2000/svg"
 width="700.000000pt" height="700.000000pt" viewBox="0 0 700.000000 700.000000"
 preserveAspectRatio="xMidYMid meet">
<metadata>
Created by potrace 1.14, written by Peter Selinger 2001-2017
</metadata>
<g transform="translate(0.000000,700.000000) scale(0.100000,-0.100000)"
fill="#000000" stroke="none">
<path d="M6275 6149 c-103 -11 -190 -47 -292 -122 -257 -190 -342 -438 -247
-727 36 -107 96 -204 178 -285 113 -112 231 -163 391 -170 347 -16 632 222
685 573 30 189 -24 384 -142 516 -133 149 -367 237 -573 215z"/>
<path d="M492 6135 c-111 -31 -266 -128 -341 -212 -102 -115 -145 -223 -144
-368 0 -87 7 -126 51 -295 80 -312 189 -685 397 -1365 85 -277 117 -382 200
-655 31 -102 65 -212 75 -245 11 -33 82 -267 160 -520 380 -1242 430 -1375
557 -1502 34 -35 69 -63 77 -63 8 0 16 -4 18 -8 2 -5 44 -28 93 -51 136 -65
165 -76 300 -107 64 -15 328 -13 395 2 155 36 271 102 390 223 133 135 165
209 305 696 138 479 288 971 306 1005 4 8 16 40 25 70 9 30 27 77 39 104 l22
50 18 -27 c52 -79 176 -428 294 -827 135 -452 291 -867 362 -960 37 -47 131
-139 173 -167 22 -15 43 -31 46 -34 10 -13 146 -77 208 -98 224 -76 511 -63
719 34 150 71 275 177 332 284 61 116 208 524 334 931 101 327 198 645 217
715 5 17 25 86 45 155 32 107 116 424 130 485 2 11 6 31 10 45 3 14 12 66 21
115 8 50 17 101 20 115 9 52 5 227 -7 275 -37 151 -167 281 -355 356 -192 77
-373 71 -544 -18 -179 -93 -274 -255 -425 -728 -81 -250 -159 -468 -180 -498
-14 -20 -15 -19 -39 34 -39 89 -244 713 -337 1024 -79 267 -185 548 -254 670
-97 175 -275 300 -485 341 -53 10 -399 14 -450 4 -25 -4 -63 -11 -85 -14 -227
-33 -432 -190 -567 -436 -66 -120 -188 -461 -282 -790 -9 -30 -45 -149 -80
-265 -117 -381 -145 -444 -198 -458 -28 -8 -68 34 -68 70 0 16 -18 93 -40 173
-23 80 -43 152 -45 160 -6 23 -58 195 -125 420 -34 113 -75 248 -90 300 -152
511 -447 1446 -475 1504 -81 171 -192 267 -383 332 -97 33 -258 42 -340 19z"/>
</g>
</svg>
